<svg xmlns="http://www.w3.org/2000/svg" viewBox="0 0 1500 1000" id="svg1">

    <defs>
        <g id="stairs">

            <rect class="space" x="0" y="0" width="40" height="40" />
            <!-- 上 右 下 左 -->
            <line class="border-1" x1="0" x2="40" y1="0" y2="0" />
            <line class="border-1" x1="40" x2="0" y1="100" y2="100" />
            <line class="border-1" x1="0" x2="0" y1="100" y2="0" />

            <g>
                <rect class="border-1" x="0" y="40" width="40" height="15" />
                <rect class="border-1" x="0" y="55" width="40" height="15" />
                <rect class="border-1" x="0" y="70" width="40" height="15" />
                <rect class="border-1" x="0" y="85" width="40" height="15" />
            </g>
        </g>
        <g id="stairs-del">

            <rect class="space" x="0" y="0" width="40" height="40" />
            <!-- 上 右 下 左 -->
            <line class="border-1" x1="40" x2="40" y1="0" y2="100" />
            <line class="border-1" x1="40" x2="0" y1="100" y2="100" />
            <line class="border-1" x1="0" x2="0" y1="100" y2="0" />

            <g>
                <rect class="border-1" x="0" y="40" width="40" height="15" />
                <rect class="border-1" x="0" y="55" width="40" height="15" />
                <rect class="border-1" x="0" y="70" width="40" height="15" />
                <rect class="border-1" x="0" y="85" width="40" height="15" />
            </g>
        </g>
    </defs>
    <title>東校舎2F</title>
    <rect class="border-2" x="0" y="0" width="1500" height="1000" />
    <text x="1100" y="150" font-size="50">東校舎2F</text>
    <g>
        <rect class="space" x="150" y="50" width="50" height="800" />
        <rect class="space" x="200" y="50" width="850" height="50" />
        <rect class="space" x="1000" y="50" width="50" height="700" />
        <rect class="space" x="200" y="750" width="1000" height="50" />
        <rect class="space" x="1050" y="550" width="150" height="50" />
        <rect class="space" x="1150" y="600" width="50" height="150" />

        <rect class="space" x="25" y="650" width="125" height="50" />
        <rect class="space" x="25" y="700" width="50" height="150" />
        <!-- 上 右 下 左 -->
        <line class="border-1" x1="150" x2="1050" y1="50" y2="50" />
        <line class="border-1" x1="1050" x2="1050" y1="50" y2="400" />
        <!-- ここから下 -->
        <line class="border-1" x1="650" x2="550" y1="850" y2="850" />
        <line class="border-1" x1="200" x2="150" y1="850" y2="850" />
        <!-- ここまで下 -->
        <!-- ここから左 -->
        <!-- 階段(下) -->
        <line class="border-1" x1="150" x2="150" y1="800" y2="700" />
        <!-- オーバーブリッジ -->
        <line class="border-1" x1="150" x2="150" y1="650" y2="450" />
        <!-- 階段(中) -->
        <line class="border-1" x1="150" x2="150" y1="400" y2="150" />
        <!-- 階段(上) -->
        <line class="border-1" x1="150" x2="150" y1="100" y2="50" />
        <!-- ここまで左 -->
        <g>
            <!-- 左階段 -->
            <use transform="matrix(1,0,0,1,0,0)" href="#stairs" x="110" y="100" />
            <use transform="matrix(1,0,0,1,0,0)" href="#stairs" x="110" y="400" />
            <use transform="matrix(1,0,0,1,0,0)" href="#stairs" x="110" y="800" />
            <g>
                <rect class="clear" x="200" y="100" width="800" height="300" />
                <rect class="space" x="200" y="400" width="800" height="50" />
                <rect class="space" x="365" y="300" width="50" height="100" />
                <rect class="space" x="745" y="300" width="50" height="100" />
                <!-- 上 右 下 左 -->
                <line class="border-1" x1="1000" x2="1000" y1="100" y2="400" />
                <!-- ここから下 -->
                <line class="border-1" x1="1000" x2="795" y1="400" y2="400" />
                <line class="border-1" x1="745" x2="415" y1="400" y2="400" />
                <line class="border-1" x1="365" x2="200" y1="400" y2="400" />
                <!-- ここまで下 -->
                <line class="border-1" x1="200" x2="200" y1="400" y2="100" />
                <!-- 1-1 -->
                <g>
                    <a href="HomeEconomics.html">
                        <rect class="border-1 room" x="200" y="100" width="190" height="100" />
                        <text class="roomN" x="295" y="155" width="190" height="100" text-anchor="middle">家庭科作品展</text>
                    </a>
                    <a href="Syakai1bu.html">
                        <rect class="border-1 room" x="390" y="100" width="95" height="100" />
                        <text class="roomN" x="437.5" y="155" width="95" height="100" text-anchor="middle">社会Ⅰ部</text>
                    </a>
                    <a href="Nijinotabi.html">
                        <rect class="border-1 room" x="485" y="100" width="95" height="100" />
                        <text class="roomN" x="532.5" y="155" width="95" height="100"
                            text-anchor="middle">ニジの旅</text>　　　　
                    </a>
                    <a href="Gakuhou.html">
                        <rect class="border-1 room" x="580" y="100" width="95" height="100" />
                        <text class="roomN" x="627.5" y="155" width="95" height="100" text-anchor="middle">学報部</text>
                    </a>
                    <a href="Tenmonbu.html">
                        <rect class="border-1 room" x="675" y="100" width="95" height="100" />
                        <text class="roomN" x="719.5" y="155" width="95" height="100" text-anchor="middle">天文部</text>
                    </a>
                    <a href="Syogi.html">
                        <rect class="border-1 room" x="770" y="100" width="190" height="100" />
                        <text class="roomN" x="865" y="155" width="95" height="100" text-anchor="middle">将棋部</text>
                    </a>
                    <use transform="matrix(1,0,0,1,0,0)" href="#stairs-del" x="960" y="100" />
                </g>
                <!-- 1-1.5 -->
                <rect class="border-1 room" x="960" y="200" width="40" height="40" />
                <rect class="border-1 room" x="960" y="240" width="40" height="60" />
                <rect class="border-1 room" x="960" y="300" width="40" height="60" />
                <!-- 1-2 -->
                <g>
                    <rect class="border-1 room" x="210" y="300" width="155" height="80" />
                    <line class="border-1 room" x1="210" y1="380" x2="365" y2="300" />
                    <g>
                        <line class="border-1" x1="365" y1="300" x2="365" y2="400" />
                        <line class="border-1" x1="365" y1="300" x2="415" y2="300" />
                        <line class="border-1" x1="415" y1="300" x2="415" y2="400" />
                    </g>
                    <rect class="border-1 room" x="415" y="300" width="155" height="80" />
                    <line class="border-1" x1="415" y1="380" x2="570" y2="300" />
                    <rect class="border-1 room" x="590" y="300" width="155" height="80" />
                    <line class="border-1" x1="590" y1="380" x2="745" y2="300" />
                    <g>
                        <line class="border-1" x1="745" y1="300" x2="745" y2="400" />
                        <line class="border-1" x1="745" y1="300" x2="795" y2="300" />
                        <line class="border-1" x1="795" y1="300" x2="795" y2="400" />
                    </g>
                    <rect class="border-1 room" x="795" y="300" width="155" height="80" />
                    <line class="border-1" x1="795" y1="380" x2="950" y2="300" />
                </g>
            </g>

            <g>
                <rect class="clear" x="200" y="450" width="800" height="300" />

                <!-- 上 右 下 左 -->
                <line class="border-1" x1="1000" x2="1000" y1="450" y2="750" />
                <line class="border-1" x1="1000" x2="200" y1="750" y2="750" />
                <line class="border-1" x1="200" x2="200" y1="750" y2="450" />

                <!-- 2-1 -->
                <g>
                    <a href="Olympic.html">
                        <rect class="border-1 room" x="200" y="450" width="190" height="100" />
                        <text class="roomN" x="295" y="505" width="190" height="100"
                            text-anchor="middle">オリンピック企画</text>
                    </a>
                    <a href="Myth.html">
                        <rect class="border-1 room" x="390" y="450" width="190" height="100" />
                        <text class="roomN" x="485" y="505" width="190" height="100" text-anchor="middle">世界の神話</text>
                    </a>
                    <a href="History_onten.html">
                        <rect class="border-1 room" x="580" y="450" width="190" height="100" />
                        <text class="roomN" x="675" y="505" width="190" height="100" text-anchor="middle">音展の歴史</text>
                    </a>
                    <a href="Koukansen.html">
                        <rect class="border-1 room" x="770" y="450" width="190" height="100" />
                        <text class="roomN" x="865" y="495" width="95" height="100" text-anchor="middle">甲関戦・</text>
                        <text class="roomN" x="865" y="515" width="95" height="100" text-anchor="middle">体育祭展示</text>
                    </a>
                    <use transform="matrix(1,0,0,1,0,0)" href="#stairs-del" x="960" y="450" />
                </g>
                <!-- 2-2 -->
                <g>
                    <rect class="border-1 room" x="866.6" y="650" width="133.2" height="100" />
                </g>
            </g>
            <!-- オーバーブリッジ -->
            <line class="border-1" x1="150" x2="25" y1="650" y2="650" />
            <line class="border-1" x1="25" x2="25" y1="650" y2="800" />

            <line class="border-1" x1="150" x2="75" y1="700" y2="700" />
            <line class="border-1" x1="75" x2="75" y1="700" y2="850" />
            <line class="border-1" x1="75" x2="25" y1="850" y2="850" />
            <!-- 下 -->
            <g>
                <line class="border-1" x1="550" x2="650" y1="800" y2="800" />
                <rect class="border-1 room" x="200" y="800" width="150" height="100" />
                <line class="border-1" x1="200" x2="350" y1="900" y2="800" />
                <rect class="border-1 room" x="350" y="800" width="200" height="100" />
                <line class="border-1" x1="350" x2="550" y1="900" y2="800" />
                <a href="Quiz.html">
                    <rect class="border-1 room" x="650" y="800" width="175" height="100" />
                    <text class="roomN" x="737.5" y="855" width="175" height="100" text-anchor="middle">クイズ企画</text>
                </a>
                <a href="PR.html">
                    <rect class="border-1 room" x="825" y="800" width="175" height="100" />
                    <text class="roomN" x="912.5" y="855" width="175" height="100" text-anchor="middle">学校PR動画</text>
                </a>
            </g>
            <!-- 右 -->
            <g>
                <rect class="border-1 room" x="1050" y="400" width="100" height="150" />
                <line class="border-1" x1="1050" x2="1150" y1="550" y2="400" />
                <a href="Buturibu.html">
                    <rect class="border-1 room" x="1150" y="400" width="200" height="150" />
                    <text class="roomN" x="1250" y="480" width="200" height="150" text-anchor="middle">物理部</text>
                </a>
                <a href="Syakai2bu.html">
                    <rect class="border-1 room" x="1200" y="550" width="150" height="100" />
                    <text class="roomN" x="1275" y="605" width="150" height="100" text-anchor="middle">社会Ⅱ部</text>
                </a>
                <rect class="border-1 room" x="1200" y="650" width="200" height="150" />
                <line class="border-1" x1="1200" x2="1400" y1="800" y2="650" />

                <a href="Library.html">
                    <rect class="room" x="1000" y="800" width="400" height="150" />
                    <text class="roomN" x="1080" y="875" width="400" height="150" text-anchor="middle">図書委員会</text>
                </a>
                <!-- 図書室 -->
                <!-- 上 右 下 左 -->
                <!-- ここから上 -->
                <line class="border-1" x1="1000" x2="1160" y1="800" y2="800" />
                <line class="border-1" x1="1200" x2="1400" y1="800" y2="800" />
                <!-- ここまで上 -->
                <line class="border-1" x1="1400" x2="1400" y1="800" y2="950" />
                <line class="border-1" x1="1400" x2="1000" y1="950" y2="950" />
                <line class="border-1" x1="1000" x2="1000" y1="950" y2="800" />


                <use transform="matrix(1,0,0,1,0,0)" href="#stairs-del" x="1160" y="800" />
                <!-- 2F光庭 -->
                <rect class="null" x="1050" y="600" width="100" height="150" />
            </g>
        </g>
        <g>
            <circle cx="1025" cy="475" r="10" style="fill: #888;" />
            <line style="stroke-width: 4px; stroke: #888;" x1="1025" x2="1200" y1="475" y2="300" />
            <a href="Ongakubu.html">
                <rect class="border-1 room" x="1200" y="275" width="200" height="50" />
                <text class="roomN" x="1300" y="305" width="200" height="50" text-anchor="middle">音楽部</text>
            </a>
        </g>
    </g>
</svg>