<svg xmlns="http://www.w3.org/2000/svg" viewBox="0 0 1500 1000" id="svg2">
    <defs>
        <g id="stairs">

            <rect class="space" x="0" y="0" width="40" height="40" />
            <!-- 上 右 下 左 -->
            <line class="border-1" x1="0" x2="40" y1="0" y2="0" />
            <line class="border-1" x1="40" x2="0" y1="100" y2="100" />
            <line class="border-1" x1="0" x2="0" y1="100" y2="0" />

            <g>
                <rect class="border-1" x="0" y="40" width="40" height="15" />
                <rect class="border-1" x="0" y="55" width="40" height="15" />
                <rect class="border-1" x="0" y="70" width="40" height="15" />
                <rect class="border-1" x="0" y="85" width="40" height="15" />
            </g>
        </g>
        <g id="stairs-del">

            <rect class="space" x="0" y="0" width="40" height="40" />
            <!-- 上 右 下 左 -->
            <line class="border-1" x1="40" x2="40" y1="0" y2="100" />
            <line class="border-1" x1="40" x2="0" y1="100" y2="100" />
            <line class="border-1" x1="0" x2="0" y1="100" y2="0" />
            <g>
                <rect class="border-1" x="0" y="40" width="40" height="15" />
                <rect class="border-1" x="0" y="55" width="40" height="15" />
                <rect class="border-1" x="0" y="70" width="40" height="15" />
                <rect class="border-1" x="0" y="85" width="40" height="15" />
            </g>
        </g>
    </defs>
    <title>西校舎</title>
    <rect class="border-2" x="0" y="0" width="1500" height="1000" />
    <text x="1325" y="150" font-size="50">西校舎</text>

    <rect class="space" x="350" y="400" width="50" height="50" />
    <rect class="space" x="400" y="400" width="50" height="400" />
    <rect class="space" x="50" y="800" width="500" height="50" />
    <rect class="space" x="500" y="850" width="450" height="50" />
    <rect class="space" x="850" y="700" width="50" height="50" />
    <rect class="space" x="900" y="100" width="50" height="750" />
    <rect class="space" x="550" y="100" width="350" height="50" />
    <rect class="space" x="950" y="125" width="50" height="50" />
    <rect class="space" x="950" y="300" width="350" height="50" />
    <rect class="space" x="1200" y="250" width="100" height="50" />
    <rect class="space" x="950" y="600" width="350" height="200" />
    <rect class="space" x="1400" y="850" width="50" height="50" />
    <rect class="space" x="1450" y="800" width="50" height="100" />

    <!-- オーバーブリッジ -->
    <line class="border-1" x1="1500" x2="1450" y1="800" y2="800" />
    <line class="border-1" x1="1450" x2="1450" y1="800" y2="850" />

    <line class="border-1" x1="1500" x2="1400" y1="900" y2="900" />
    <line class="border-1" x1="1400" x2="1400" y1="900" y2="850" />
    <g>
        <!-- 枠 -->
        <g>
            <!-- テニス -->
            <line class="border-1" x1="0" x2="500" y1="200" y2="200" />
            <line class="border-1" x1="400" x2="400" y1="200" y2="400" />
            <!-- 講堂横 -->
            <line class="border-1" x1="350" x2="450" y1="400" y2="400" />
            <line class="border-1" x1="450" x2="450" y1="400" y2="800" />
            <line class="border-1" x1="350" x2="400" y1="450" y2="450" />
            <line class="border-1" x1="400" x2="400" y1="450" y2="800" />
            <!-- 講堂下 -->
            <line class="border-1" x1="50" x2="400" y1="800" y2="800" />
            <line class="border-1" x1="450" x2="550" y1="800" y2="800" />
            <line class="border-1" x1="50" x2="50" y1="800" y2="850" />
            <line class="border-1" x1="50" x2="500" y1="850" y2="850" />
            <line class="border-1" x1="500" x2="500" y1="850" y2="900" />
            <!-- 食堂周り -->
            <line class="border-1" x1="500" x2="950" y1="900" y2="900" />
            <line class="border-1" x1="950" x2="950" y1="900" y2="700" />
            <line class="border-1" x1="950" x2="1100" y1="800" y2="800" />
            <!-- 右側 -->
            <line class="border-1" x1="1200" x2="1300" y1="800" y2="800" />
            <line class="border-1" x1="1300" x2="1300" y1="800" y2="250" />
            <g>
                <line class="border-1" x1="1300" x2="1200" y1="750" y2="750" />
                <line class="border-1" x1="1200" x2="1200" y1="750" y2="700" />
                <use transform="rotate(180)" href="#stairs-del" x="-1300" y="-700" />
            </g>
            <rect class="room" x="1000" y="50" width="300" height="150" />
            <line class="border-1" x1="1300" x2="950" y1="250" y2="250" />
            <line class="border-1" x1="950" x2="950" y1="250" y2="175" />
            <line class="border-1" x1="950" x2="1000" y1="175" y2="175" />
            <line class="border-1" x1="1000" x2="1000" y1="175" y2="200" />
            <line class="border-1" x1="1000" x2="1300" y1="200" y2="200" />
            <line class="border-1" x1="1300" x2="1300" y1="200" y2="50" />
            <line class="border-1" x1="1300" x2="1000" y1="50" y2="50" />
            <line class="border-1" x1="1000" x2="1000" y1="50" y2="125" />
            <line class="border-1" x1="1000" x2="950" y1="125" y2="125" />
            <line class="border-1" x1="950" x2="950" y1="125" y2="100" />
            <line class="border-1" x1="950" x2="800" y1="100" y2="100" />
            <use transform="rotate(90)" href="#stairs" x="60" y="-800" />
            <line class="border-1" x1="700" x2="500" y1="100" y2="100" />
            <line class="border-1" x1="500" x2="500" y1="100" y2="250" />
            <line class="border-1" x1="500" x2="900" y1="250" y2="250" />
            <line class="border-1" x1="900" x2="900" y1="250" y2="700" />
            <line class="border-1" x1="850" x2="900" y1="700" y2="700" />
        </g>
        <g>
            <!-- 講堂 -->
            <rect class="border-1 room" x="50" y="350" width="300" height="450" />
            <text class="roomN" x="200" y="580" width="300" height="450" text-anchor="middle">講堂</text>
            <g>
                <rect class="border-1 room" x="50" y="725" width="75" height="75" />
                <rect class="border-1 room" x="275" y="725" width="75" height="75" />
            </g>
            <!-- 食堂 -->
            <rect class="border-1 room" x="550" y="700" width="300" height="150" />
            <rect class="border-1 room" x="850" y="750" width="50" height="100" />
            <text class="roomN" x="700" y="750" width="300" height="150" text-anchor="middle">食堂</text>
            <!-- 中央付近 -->
            <rect class="border-1 room" x="950" y="350" width="350" height="250" />
            <g>
                <rect class="border-1 room" x="950" y="350" width="200" height="125" />
                <text class="roomN" x="1050" y="417.5" width="200" height="125" text-anchor="middle">剣道場</text>
                <text class="roomN" x="1225" y="417.5" width="200" height="125" text-anchor="middle">柔道場</text>
                <rect class="border-1 room" x="950" y="475" width="150" height="62.5" />
                <line class="border-1" x1="1100" x2="950" y1="475" y2="537.5" />
                <rect class="border-1 room" x="950" y="537.5" width="150" height="62.5" />
                <line class="border-1" x1="1100" x2="950" y1="537.5" y2="600" />
                <a href="Cap_art.html">
                    <rect class="border-1 room" x="1100" y="475" width="200" height="125" />
                    <text class="roomN" x="1200" y="537.5" width="350" height="100" text-anchor="middle">キャップアート</text>
                </a>
            </g>
            <g>
                <rect class="border-1 room" x="950" y="250" width="150" height="50" />
                <rect class="border-1 room" x="1100" y="250" width="100" height="50" />
                <use transform="rotate(270)scale(-1,1)" href="#stairs" x="250" y="1200" />
            </g>
            <!-- プール -->
            <rect class="border-1 pool" x="650" y="300" width="200" height="350" />
            <rect class="border-1 space" x="850" y="485" width="50" height="50" />
            <!-- 北 -->
            <rect class="border-1 room" x="500" y="100" width="50" height="150" />
            <rect class="border-1 room" x="550" y="150" width="125" height="100" />
            <rect class="border-1 room" x="675" y="150" width="75" height="100" />
            <rect class="border-1 room" x="750" y="150" width="75" height="100" />
            <rect class="border-1 room" x="825" y="150" width="75" height="100" />
        </g>
        <g>
            <circle cx="1025" cy="625" r="10" style="fill: #888;" />
            <line style="stroke-width: 4px; stroke: #888;" x1="1025" x2="1350" y1="625" y2="525" />
            <a href="Technology.html">
                <rect class="border-1 room" x="1350" y="500" width="140" height="50" />
                <text class="roomN" x="1420" y="530" width="140" height="50" text-anchor="middle">技術作品展</text>
            </a>
            <circle cx="1280" cy="625" r="10" style="fill: #888;" />
            <line style="stroke-width: 4px; stroke: #888;" x1="1280" x2="1350" y1="625" y2="575" />
            <a href="Sugoroku.html">
                <rect class="border-1 room" x="1350" y="550" width="140" height="50" />
                <text class="roomN" x="1420" y="580" width="140" height="50" text-anchor="middle">人間すごろく</text>
            </a>
            <!-- <circle cx="1175" cy="725" r="10" />
            <line style="stroke-width: 4px; stroke: #888;" x1="1175" x2="1350" y1="725" y2="625" />
            <rect class="border-1 room" x="1350" y="600" width="140" height="50" />
            <text class="roomN" x="1420" y="630" width="140" height="50" text-anchor="middle">甲陽カレー</text> -->
        </g>
    </g>
</svg>